Coordinates
version=1
nRows=18
nColumns=22
inDegrees=yes

Units are S.I. units (second, meters, Newtons, ...)
If the header above contains a line with 'inDegrees', this indicates whether rotational values are in degrees (yes) or radians (no).

endheader
time	pelvis_tilt	pelvis_list	pelvis_rotation	pelvis_tx	pelvis_ty	pelvis_tz	hip_flexion_r	hip_adduction_r	hip_rotation_r	knee_angle_r	ankle_angle_r	subtalar_angle_r	hip_flexion_l	hip_adduction_l	hip_rotation_l	knee_angle_l	ankle_angle_l	subtalar_angle_l	lumbar_extension	lumbar_bending	lumbar_rotation
      1.46000000	    -12.28378193	      4.64934149	    -34.53687059	     -1.51285246	      0.87580321	     -0.21562752	     13.19628244	      2.20050560	      6.25506485	    -10.20322320	     14.83998265	     -1.53190520	     13.31539627	     -8.74718884	    -10.87512216	    -18.64757789	     17.91302884	      4.80661556	      2.16818150	      2.13942106	     11.26042346
      1.47000000	    -12.31020285	      4.46983862	    -34.58952550	     -1.51239117	      0.87539524	     -0.21369042	     12.94847604	      2.46980824	      6.34921491	    -10.11541303	     14.98938859	     -1.67834907	     13.82382025	     -9.14066161	    -10.65919685	    -19.96153681	     18.22124565	      4.83787891	      2.07053253	      2.43826748	     11.22438471
      1.48000000	    -12.31633789	      4.25434625	    -34.63212231	     -1.51183827	      0.87498759	     -0.21168937	     12.64784880	      2.75668721	      6.42293559	    -10.02212629	     15.14974586	     -1.83198810	     14.34699873	     -9.55805733	    -10.40173230	    -21.37849746	     18.50681584	      4.89436031	      1.94280870	      2.75614496	     11.20281155
      1.49000000	    -12.26199033	      3.99389214	    -34.67853668	     -1.51118972	      0.87465842	     -0.20964704	     12.26688194	      3.04423378	      6.49308639	     -9.94426457	     15.31819654	     -1.92415087	     14.82698603	     -9.98005571	    -10.12656325	    -22.87206397	     18.76146469	      4.93811291	      1.73288004	      3.08266907	     11.19971336
      1.50000000	    -12.21953972	      3.74139995	    -34.67981640	     -1.51045734	      0.87429670	     -0.20762144	     11.87733308	      3.32057086	      6.52220896	     -9.83228917	     15.50691599	     -2.12788017	     15.39355085	    -10.39626337	     -9.78323557	    -24.47569037	     18.90743605	      5.10191746	      1.55117776	      3.40614465	     11.18280835
      1.51000000	    -12.09071647	      3.45437442	    -34.68712609	     -1.50963531	      0.87409155	     -0.20556705	     11.38630978	      3.57110732	      6.54622929	     -9.72091641	     15.66963487	     -2.20830020	     15.90225367	    -10.79456336	     -9.45034238	    -26.15943968	     18.98616373	      5.19829125	      1.26565482	      3.70757021	     11.18539890
      1.52000000	    -11.95188503	      3.19357834	    -34.65788456	     -1.50877456	      0.87391479	     -0.20353074	     10.89441162	      3.78726993	      6.54901589	     -9.59962435	     15.85549719	     -2.37637622	     16.48761028	    -11.15943600	     -9.05458527	    -27.94645385	     18.90224077	      5.43802168	      0.99242972	      3.96689857	     11.18104020
      1.53000000	    -11.74044531	      2.93143585	    -34.62989737	     -1.50786104	      0.87389641	     -0.20149737	     10.33971429	      3.95818441	      6.54178989	     -9.48406957	     16.01875370	     -2.44953902	     17.06744687	    -11.48724836	     -8.67125213	    -29.83858587	     18.71093143	      5.59076869	      0.64677365	      4.17809861	     11.19688375
      1.54000000	    -11.50980172	      2.71226934	    -34.57869337	     -1.50695268	      0.87394756	     -0.19948868	      9.79345985	      4.07866031	      6.52585089	     -9.36326267	     16.17866359	     -2.55257175	     17.73856157	    -11.76576208	     -8.24771131	    -31.85089032	     18.32915676	      5.81922515	      0.30818117	      4.32431352	     11.21446576
      1.55000000	    -11.24937474	      2.53975127	    -34.52459736	     -1.50604811	      0.87408685	     -0.19750309	      9.25786433	      4.14097763	      6.51192382	     -9.25567943	     16.33425778	     -2.66126884	     18.48796960	    -11.98637593	     -7.81014375	    -33.97520305	     17.76321116	      6.07401411	     -0.03336962	      4.39904909	     11.25818702
      1.56000000	    -10.97897119	      2.42393735	    -34.47059038	     -1.50515979	      0.87427553	     -0.19552961	      8.75638784	      4.14995273	      6.49703630	     -9.15811300	     16.49184945	     -2.78814084	     19.34053400	    -12.15123635	     -7.35505970	    -36.20724903	     17.02822199	      6.36000648	     -0.35164870	      4.40426941	     11.32401098
      1.57000000	    -10.67180329	      2.34875862	    -34.42133942	     -1.50425433	      0.87456782	     -0.19354633	      8.25664108	      4.10378277	      6.48934328	     -9.07978823	     16.62780741	     -2.87626429	     20.24618361	    -12.25629854	     -6.90542458	    -38.51290162	     16.10398370	      6.54472664	     -0.68048646	      4.33587587	     11.42059243
      1.58000000	    -10.37467014	      2.32243486	    -34.37952966	     -1.50333436	      0.87486273	     -0.19156268	      7.80025624	      4.02174514	      6.48003518	     -9.00974479	     16.78080295	     -2.97148528	     21.24954012	    -12.31489780	     -6.43995702	    -40.87938722	     15.06739958	      6.67646442	     -0.96865487	      4.21812828	     11.54751160
      1.59000000	    -10.07866052	      2.32723953	    -34.35387188	     -1.50236881	      0.87517753	     -0.18957700	      7.37420633	      3.91409980	      6.48887592	     -8.96438662	     16.94451084	     -3.06541714	     22.31028672	    -12.33164923	     -5.97060894	    -43.26538109	     13.94603943	      6.68893468	     -1.23431897	      4.06662025	     11.71538572
      1.60000000	     -9.78015727	      2.35430926	    -34.34393903	     -1.50130053	      0.87551300	     -0.18756844	      6.94935825	      3.78191758	      6.48838879	     -8.90785063	     17.07851513	     -3.13776056	     23.39789385	    -12.31502769	     -5.53121599	    -45.62958443	     12.79273759	      6.54529058	     -1.47936798	      3.88726148	     11.91083771
      1.61000000	     -9.49416169	      2.39321150	    -34.36033291	     -1.50014963	      0.87582721	     -0.18553494	      6.54512943	      3.64744793	      6.51040154	     -8.86463456	     17.22352980	     -3.20589997	     24.50392081	    -12.28394086	     -5.12950577	    -47.94045593	     11.69923606	      6.22499242	     -1.70015290	      3.70050002	     12.14576202
      1.62000000	     -9.21765765	      2.43300408	    -34.41330291	     -1.49889669	      0.87612305	     -0.18345002	      6.14526110	      3.51765292	      6.55608569	     -8.82517689	     17.37316964	     -3.27250118	     25.59233952	    -12.25420602	     -4.79158663	    -50.14879340	     10.73406836	      5.71637673	     -1.90455194	      3.51164732	     12.42995523
      1.63000000	     -8.94713366	      2.46442059	    -34.50207712	     -1.49750347	      0.87640434	     -0.18131668	      5.73130708	      3.39580384	      6.63068855	     -8.77296049	     17.50601512	     -3.33171791	     26.63650627	    -12.23850127	     -4.53912033	    -52.21763026	      9.95370862	      5.10368869	     -2.09799340	      3.33362595	     12.75176632
